<svg width="261" height="68" viewBox="0 0 261 68" fill="none" xmlns="http://www.w3.org/2000/svg">
<rect width="260" height="68" transform="translate(0.5)" fill="#6E9C9F"/>
<path d="M52.3946 40V27.93H61.5066V40H60.3166V28.984H53.5846V40H52.3946ZM68.4573 40.17C67.8226 40.17 67.2333 40.051 66.6893 39.813C66.1453 39.5637 65.675 39.2293 65.2783 38.81C64.8816 38.3793 64.57 37.8863 64.3433 37.331C64.128 36.7757 64.0203 36.1807 64.0203 35.546C64.0203 34.7187 64.2073 33.9593 64.5813 33.268C64.9666 32.5767 65.4936 32.027 66.1623 31.619C66.831 31.1997 67.5903 30.99 68.4403 30.99C69.313 30.99 70.0723 31.1997 70.7183 31.619C71.3756 32.0383 71.8913 32.5937 72.2653 33.285C72.6393 33.965 72.8263 34.713 72.8263 35.529C72.8263 35.6197 72.8263 35.7103 72.8263 35.801C72.8263 35.8803 72.8206 35.9427 72.8093 35.988H65.2273C65.284 36.6227 65.4596 37.1893 65.7543 37.688C66.0603 38.1753 66.4513 38.5663 66.9273 38.861C67.4146 39.1443 67.9416 39.286 68.5083 39.286C69.0863 39.286 69.6303 39.1387 70.1403 38.844C70.6616 38.5493 71.0243 38.164 71.2283 37.688L72.2313 37.96C72.05 38.3793 71.7723 38.759 71.3983 39.099C71.0243 39.439 70.5823 39.7053 70.0723 39.898C69.5736 40.0793 69.0353 40.17 68.4573 40.17ZM65.1933 35.155H71.7383C71.693 34.509 71.5173 33.9423 71.2113 33.455C70.9166 32.9677 70.5256 32.588 70.0383 32.316C69.5623 32.0327 69.0353 31.891 68.4573 31.891C67.8793 31.891 67.3523 32.0327 66.8763 32.316C66.4003 32.588 66.0093 32.9733 65.7033 33.472C65.4086 33.9593 65.2386 34.5203 65.1933 35.155ZM79.4718 40.17C78.7352 40.17 78.0722 39.9773 77.4828 39.592C76.9048 39.2067 76.4458 38.7307 76.1058 38.164V43.621H74.9498V31.143H75.9868V32.86C76.3382 32.3047 76.8085 31.857 77.3978 31.517C77.9872 31.1657 78.6162 30.99 79.2848 30.99C79.8968 30.99 80.4578 31.1203 80.9678 31.381C81.4778 31.6303 81.9198 31.9703 82.2938 32.401C82.6678 32.8317 82.9568 33.3247 83.1608 33.88C83.3762 34.424 83.4838 34.9907 83.4838 35.58C83.4838 36.4073 83.3138 37.1723 82.9738 37.875C82.6452 38.5663 82.1805 39.1217 81.5798 39.541C80.9792 39.9603 80.2765 40.17 79.4718 40.17ZM79.1488 39.15C79.6362 39.15 80.0725 39.0537 80.4578 38.861C80.8432 38.657 81.1718 38.385 81.4438 38.045C81.7272 37.705 81.9425 37.3253 82.0898 36.906C82.2372 36.4753 82.3108 36.0333 82.3108 35.58C82.3108 35.104 82.2258 34.6507 82.0558 34.22C81.8972 33.7893 81.6648 33.4097 81.3588 33.081C81.0528 32.7523 80.7015 32.4917 80.3048 32.299C79.9082 32.1063 79.4775 32.01 79.0128 32.01C78.7182 32.01 78.4122 32.0667 78.0948 32.18C77.7775 32.2933 77.4715 32.4577 77.1768 32.673C76.8935 32.877 76.6555 33.1093 76.4628 33.37C76.2702 33.6307 76.1512 33.9083 76.1058 34.203V36.923C76.2872 37.3423 76.5308 37.722 76.8368 38.062C77.1428 38.3907 77.4942 38.657 77.8908 38.861C78.2988 39.0537 78.7182 39.15 79.1488 39.15ZM89.607 40.17C88.9724 40.17 88.383 40.051 87.839 39.813C87.295 39.5637 86.8247 39.2293 86.428 38.81C86.0314 38.3793 85.7197 37.8863 85.493 37.331C85.2777 36.7757 85.17 36.1807 85.17 35.546C85.17 34.7187 85.357 33.9593 85.731 33.268C86.1164 32.5767 86.6434 32.027 87.312 31.619C87.9807 31.1997 88.74 30.99 89.59 30.99C90.4627 30.99 91.222 31.1997 91.868 31.619C92.5254 32.0383 93.041 32.5937 93.415 33.285C93.789 33.965 93.976 34.713 93.976 35.529C93.976 35.6197 93.976 35.7103 93.976 35.801C93.976 35.8803 93.9704 35.9427 93.959 35.988H86.377C86.4337 36.6227 86.6094 37.1893 86.904 37.688C87.21 38.1753 87.601 38.5663 88.077 38.861C88.5644 39.1443 89.0914 39.286 89.658 39.286C90.236 39.286 90.78 39.1387 91.29 38.844C91.8114 38.5493 92.174 38.164 92.378 37.688L93.381 37.96C93.1997 38.3793 92.922 38.759 92.548 39.099C92.174 39.439 91.732 39.7053 91.222 39.898C90.7234 40.0793 90.185 40.17 89.607 40.17ZM86.343 35.155H92.888C92.8427 34.509 92.667 33.9423 92.361 33.455C92.0664 32.9677 91.6754 32.588 91.188 32.316C90.712 32.0327 90.185 31.891 89.607 31.891C89.029 31.891 88.502 32.0327 88.026 32.316C87.55 32.588 87.159 32.9733 86.853 33.472C86.5584 33.9593 86.3884 34.5203 86.343 35.155ZM96.0826 40V31.16H97.2386V38.436L102.628 31.143H103.665V40H102.509V32.843L97.2046 40H96.0826ZM99.8906 30.021C99.1199 30.021 98.5249 29.8397 98.1056 29.477C97.6862 29.1143 97.4766 28.6553 97.4766 28.1H98.3266C98.3266 28.44 98.4512 28.7233 98.7006 28.95C98.9612 29.1767 99.3579 29.29 99.8906 29.29C100.412 29.29 100.792 29.1823 101.03 28.967C101.279 28.7517 101.421 28.4627 101.455 28.1H102.288C102.288 28.6553 102.078 29.1143 101.659 29.477C101.239 29.8397 100.65 30.021 99.8906 30.021ZM108.743 40V32.18H105.581V31.143H113.061V32.18H109.899V40H108.743ZM114.958 40V31.16H116.114V38.436L121.503 31.143H122.54V40H121.384V32.843L116.08 40H114.958ZM130.065 40V31.143H134.485C134.983 31.143 135.403 31.2507 135.743 31.466C136.083 31.67 136.338 31.9363 136.508 32.265C136.689 32.5937 136.78 32.945 136.78 33.319C136.78 33.795 136.666 34.2257 136.44 34.611C136.213 34.985 135.884 35.2683 135.454 35.461C135.964 35.6083 136.377 35.8747 136.695 36.26C137.012 36.6453 137.171 37.11 137.171 37.654C137.171 38.13 137.052 38.5437 136.814 38.895C136.587 39.2463 136.27 39.5183 135.862 39.711C135.465 39.9037 135.006 40 134.485 40H130.065ZM131.17 39.167H134.451C134.745 39.167 135.012 39.0933 135.25 38.946C135.499 38.7873 135.692 38.5833 135.828 38.334C135.975 38.0847 136.049 37.824 136.049 37.552C136.049 37.2573 135.981 36.991 135.845 36.753C135.709 36.5037 135.527 36.3053 135.301 36.158C135.074 36.0107 134.813 35.937 134.519 35.937H131.17V39.167ZM131.17 35.138H134.179C134.473 35.138 134.734 35.0587 134.961 34.9C135.187 34.7413 135.363 34.5373 135.488 34.288C135.612 34.0387 135.675 33.778 135.675 33.506C135.675 33.098 135.539 32.741 135.267 32.435C135.006 32.129 134.666 31.976 134.247 31.976H131.17V35.138ZM144.175 40V31.143H145.365L148.884 37.246L152.42 31.143H153.559V40H152.454V32.877L149.258 38.419H148.51L145.28 32.877V40H144.175ZM155.738 37.45C155.738 36.8947 155.897 36.4187 156.214 36.022C156.532 35.614 156.968 35.3023 157.523 35.087C158.09 34.8603 158.742 34.747 159.478 34.747C159.909 34.747 160.357 34.781 160.821 34.849C161.286 34.917 161.7 35.019 162.062 35.155V34.407C162.062 33.659 161.841 33.064 161.399 32.622C160.957 32.18 160.345 31.959 159.563 31.959C159.087 31.959 158.617 32.0497 158.152 32.231C157.699 32.401 157.223 32.656 156.724 32.996L156.282 32.18C156.86 31.7833 157.427 31.4887 157.982 31.296C158.538 31.092 159.104 30.99 159.682 30.99C160.77 30.99 161.632 31.3017 162.266 31.925C162.901 32.5483 163.218 33.4097 163.218 34.509V38.606C163.218 38.7647 163.252 38.8837 163.32 38.963C163.388 39.031 163.496 39.0707 163.643 39.082V40C163.519 40.0113 163.411 40.0227 163.32 40.034C163.23 40.0453 163.162 40.0453 163.116 40.034C162.833 40.0227 162.618 39.932 162.47 39.762C162.323 39.592 162.244 39.4107 162.232 39.218L162.215 38.572C161.819 39.082 161.303 39.4787 160.668 39.762C160.034 40.034 159.388 40.17 158.73 40.17C158.164 40.17 157.648 40.051 157.183 39.813C156.73 39.5637 156.373 39.235 156.112 38.827C155.863 38.4077 155.738 37.9487 155.738 37.45ZM161.671 38.13C161.796 37.9713 161.892 37.8183 161.96 37.671C162.028 37.5237 162.062 37.3933 162.062 37.28V35.988C161.677 35.8407 161.275 35.7273 160.855 35.648C160.447 35.5687 160.034 35.529 159.614 35.529C158.787 35.529 158.118 35.6933 157.608 36.022C157.098 36.3507 156.843 36.7983 156.843 37.365C156.843 37.6937 156.928 38.0053 157.098 38.3C157.268 38.5833 157.518 38.8213 157.846 39.014C158.175 39.1953 158.56 39.286 159.002 39.286C159.558 39.286 160.073 39.1783 160.549 38.963C161.037 38.7477 161.411 38.47 161.671 38.13ZM166.039 40V31.143H171.326V32.18H167.195V40H166.039ZM172.572 37.45C172.572 36.8947 172.73 36.4187 173.048 36.022C173.365 35.614 173.801 35.3023 174.357 35.087C174.923 34.8603 175.575 34.747 176.312 34.747C176.742 34.747 177.19 34.781 177.655 34.849C178.119 34.917 178.533 35.019 178.896 35.155V34.407C178.896 33.659 178.675 33.064 178.233 32.622C177.791 32.18 177.179 31.959 176.397 31.959C175.921 31.959 175.45 32.0497 174.986 32.231C174.532 32.401 174.056 32.656 173.558 32.996L173.116 32.18C173.694 31.7833 174.26 31.4887 174.816 31.296C175.371 31.092 175.938 30.99 176.516 30.99C177.604 30.99 178.465 31.3017 179.1 31.925C179.734 32.5483 180.052 33.4097 180.052 34.509V38.606C180.052 38.7647 180.086 38.8837 180.154 38.963C180.222 39.031 180.329 39.0707 180.477 39.082V40C180.352 40.0113 180.244 40.0227 180.154 40.034C180.063 40.0453 179.995 40.0453 179.95 40.034C179.666 40.0227 179.451 39.932 179.304 39.762C179.156 39.592 179.077 39.4107 179.066 39.218L179.049 38.572C178.652 39.082 178.136 39.4787 177.502 39.762C176.867 40.034 176.221 40.17 175.564 40.17C174.997 40.17 174.481 40.051 174.017 39.813C173.563 39.5637 173.206 39.235 172.946 38.827C172.696 38.4077 172.572 37.9487 172.572 37.45ZM178.505 38.13C178.629 37.9713 178.726 37.8183 178.794 37.671C178.862 37.5237 178.896 37.3933 178.896 37.28V35.988C178.51 35.8407 178.108 35.7273 177.689 35.648C177.281 35.5687 176.867 35.529 176.448 35.529C175.62 35.529 174.952 35.6933 174.442 36.022C173.932 36.3507 173.677 36.7983 173.677 37.365C173.677 37.6937 173.762 38.0053 173.932 38.3C174.102 38.5833 174.351 38.8213 174.68 39.014C175.008 39.1953 175.394 39.286 175.836 39.286C176.391 39.286 176.907 39.1783 177.383 38.963C177.87 38.7477 178.244 38.47 178.505 38.13ZM185.456 40.102C184.64 40.102 183.943 39.949 183.365 39.643C182.787 39.3257 182.345 38.8837 182.039 38.317L182.991 37.892C183.207 38.2887 183.518 38.6003 183.926 38.827C184.334 39.0423 184.827 39.15 185.405 39.15C186.097 39.15 186.646 38.9913 187.054 38.674C187.474 38.3567 187.683 37.9317 187.683 37.399C187.683 36.9117 187.519 36.5207 187.19 36.226C186.862 35.9313 186.408 35.7783 185.83 35.767H184.929V34.968H185.898C186.148 34.968 186.374 34.9 186.578 34.764C186.782 34.628 186.941 34.4467 187.054 34.22C187.168 33.9933 187.224 33.7383 187.224 33.455C187.224 33.013 187.066 32.656 186.748 32.384C186.442 32.112 185.989 31.976 185.388 31.976C184.89 31.976 184.47 32.078 184.13 32.282C183.802 32.4747 183.535 32.7637 183.331 33.149L182.447 32.673C182.708 32.1517 183.093 31.7437 183.603 31.449C184.125 31.1543 184.731 31.007 185.422 31.007C185.989 31.007 186.482 31.1033 186.901 31.296C187.332 31.4773 187.666 31.7437 187.904 32.095C188.154 32.435 188.278 32.8487 188.278 33.336C188.278 33.7553 188.176 34.1463 187.972 34.509C187.768 34.8603 187.485 35.1267 187.122 35.308C187.644 35.4667 188.046 35.7443 188.329 36.141C188.624 36.5377 188.771 37.0023 188.771 37.535C188.771 38.0677 188.63 38.5267 188.346 38.912C188.063 39.2973 187.672 39.592 187.173 39.796C186.675 40 186.102 40.102 185.456 40.102ZM191.032 40V31.16H192.188V38.436L197.577 31.143H198.614V40H197.458V32.843L192.154 40H191.032ZM201.465 40V31.143H202.621V34.951H207.687V31.143H208.843V40H207.687V35.988H202.621V40H201.465Z" fill="white"/>
</svg>
