<svg width="268" height="68" viewBox="0 0 268 68" fill="none" xmlns="http://www.w3.org/2000/svg">
<rect width="268" height="68" fill="#6E9C9F"/>
<path d="M50.9396 42.312V38.946H51.4496C51.7669 38.946 52.0446 38.8157 52.2826 38.555C52.5319 38.2943 52.7416 37.875 52.9116 37.297C53.0929 36.7077 53.2346 35.92 53.3366 34.934C53.4499 33.948 53.5293 32.724 53.5746 31.262L53.6596 27.93H60.8846V38.946H62.3296V42.312H61.2756V40H51.9936V42.312H50.9396ZM53.1496 38.946H59.6946V28.984H54.7476L54.6796 31.398C54.6456 32.928 54.5663 34.2087 54.4416 35.24C54.3283 36.26 54.1639 37.0703 53.9486 37.671C53.7333 38.2603 53.4669 38.6853 53.1496 38.946ZM68.416 40.17C67.7813 40.17 67.192 40.051 66.648 39.813C66.1153 39.5637 65.6507 39.2293 65.254 38.81C64.8687 38.3793 64.5683 37.892 64.353 37.348C64.1377 36.7927 64.03 36.209 64.03 35.597C64.03 34.9623 64.1377 34.373 64.353 33.829C64.5683 33.2737 64.8743 32.7863 65.271 32.367C65.6677 31.9363 66.1323 31.602 66.665 31.364C67.209 31.1147 67.7983 30.99 68.433 30.99C69.0677 30.99 69.6513 31.1147 70.184 31.364C70.7167 31.602 71.1813 31.9363 71.578 32.367C71.9747 32.7863 72.2807 33.2737 72.496 33.829C72.7113 34.373 72.819 34.9623 72.819 35.597C72.819 36.209 72.7113 36.7927 72.496 37.348C72.2807 37.892 71.9747 38.3793 71.578 38.81C71.1927 39.2293 70.728 39.5637 70.184 39.813C69.6513 40.051 69.062 40.17 68.416 40.17ZM65.203 35.614C65.203 36.2713 65.3447 36.872 65.628 37.416C65.9227 37.9487 66.3137 38.3737 66.801 38.691C67.2883 38.997 67.8267 39.15 68.416 39.15C69.0053 39.15 69.5437 38.9913 70.031 38.674C70.5183 38.3567 70.9093 37.926 71.204 37.382C71.4987 36.8267 71.646 36.226 71.646 35.58C71.646 34.9227 71.4987 34.322 71.204 33.778C70.9093 33.234 70.5183 32.8033 70.031 32.486C69.5437 32.1687 69.0053 32.01 68.416 32.01C67.8267 32.01 67.2883 32.1743 66.801 32.503C66.325 32.8317 65.9397 33.268 65.645 33.812C65.3503 34.3447 65.203 34.9453 65.203 35.614ZM79.1553 40.17C77.7273 40.17 76.645 39.7337 75.9083 38.861C75.183 37.977 74.8203 36.7587 74.8203 35.206C74.8203 34.1067 74.911 33.1773 75.0923 32.418C75.2737 31.6587 75.54 31.0353 75.8913 30.548C76.2427 30.0493 76.6733 29.6413 77.1833 29.324C77.7047 29.0067 78.2997 28.746 78.9683 28.542L82.6913 27.318L82.7933 28.321L79.2063 29.494C78.5263 29.7207 77.9597 30.0097 77.5063 30.361C77.053 30.7123 76.696 31.16 76.4353 31.704C76.186 32.2367 76.0217 32.9337 75.9423 33.795C76.237 33.1377 76.6903 32.6333 77.3023 32.282C77.9143 31.9193 78.6227 31.738 79.4273 31.738C80.2887 31.738 81.0197 31.9137 81.6203 32.265C82.2323 32.6163 82.697 33.1037 83.0143 33.727C83.3317 34.3503 83.4903 35.07 83.4903 35.886C83.4903 36.7473 83.3203 37.501 82.9803 38.147C82.6517 38.7817 82.1643 39.2803 81.5183 39.643C80.8837 39.9943 80.096 40.17 79.1553 40.17ZM79.1553 39.15C80.164 39.15 80.9403 38.861 81.4843 38.283C82.0397 37.6937 82.3173 36.9117 82.3173 35.937C82.3173 34.985 82.0453 34.2087 81.5013 33.608C80.9687 33.0073 80.1867 32.707 79.1553 32.707C78.566 32.707 78.0333 32.8317 77.5573 33.081C77.0813 33.3303 76.7017 33.693 76.4183 34.169C76.1463 34.645 76.0103 35.2343 76.0103 35.937C76.0103 36.549 76.1293 37.0987 76.3673 37.586C76.6167 38.0733 76.9737 38.4587 77.4383 38.742C77.903 39.014 78.4753 39.15 79.1553 39.15ZM85.0611 37.45C85.0611 36.8947 85.2198 36.4187 85.5371 36.022C85.8545 35.614 86.2908 35.3023 86.8461 35.087C87.4128 34.8603 88.0645 34.747 88.8011 34.747C89.2318 34.747 89.6795 34.781 90.1441 34.849C90.6088 34.917 91.0225 35.019 91.3851 35.155V34.407C91.3851 33.659 91.1641 33.064 90.7221 32.622C90.2801 32.18 89.6681 31.959 88.8861 31.959C88.4101 31.959 87.9398 32.0497 87.4751 32.231C87.0218 32.401 86.5458 32.656 86.0471 32.996L85.6051 32.18C86.1831 31.7833 86.7498 31.4887 87.3051 31.296C87.8605 31.092 88.4271 30.99 89.0051 30.99C90.0931 30.99 90.9545 31.3017 91.5891 31.925C92.2238 32.5483 92.5411 33.4097 92.5411 34.509V38.606C92.5411 38.7647 92.5751 38.8837 92.6431 38.963C92.7111 39.031 92.8188 39.0707 92.9661 39.082V40C92.8415 40.0113 92.7338 40.0227 92.6431 40.034C92.5525 40.0453 92.4845 40.0453 92.4391 40.034C92.1558 40.0227 91.9405 39.932 91.7931 39.762C91.6458 39.592 91.5665 39.4107 91.5551 39.218L91.5381 38.572C91.1415 39.082 90.6258 39.4787 89.9911 39.762C89.3565 40.034 88.7105 40.17 88.0531 40.17C87.4865 40.17 86.9708 40.051 86.5061 39.813C86.0528 39.5637 85.6958 39.235 85.4351 38.827C85.1858 38.4077 85.0611 37.9487 85.0611 37.45ZM90.9941 38.13C91.1188 37.9713 91.2151 37.8183 91.2831 37.671C91.3511 37.5237 91.3851 37.3933 91.3851 37.28V35.988C90.9998 35.8407 90.5975 35.7273 90.1781 35.648C89.7701 35.5687 89.3565 35.529 88.9371 35.529C88.1098 35.529 87.4411 35.6933 86.9311 36.022C86.4211 36.3507 86.1661 36.7983 86.1661 37.365C86.1661 37.6937 86.2511 38.0053 86.4211 38.3C86.5911 38.5833 86.8405 38.8213 87.1691 39.014C87.4978 39.1953 87.8831 39.286 88.3251 39.286C88.8805 39.286 89.3961 39.1783 89.8721 38.963C90.3595 38.7477 90.7335 38.47 90.9941 38.13ZM95.3618 40V31.143H99.7818C100.28 31.143 100.7 31.2507 101.04 31.466C101.38 31.67 101.635 31.9363 101.805 32.265C101.986 32.5937 102.077 32.945 102.077 33.319C102.077 33.795 101.963 34.2257 101.737 34.611C101.51 34.985 101.181 35.2683 100.751 35.461C101.261 35.6083 101.674 35.8747 101.992 36.26C102.309 36.6453 102.468 37.11 102.468 37.654C102.468 38.13 102.349 38.5437 102.111 38.895C101.884 39.2463 101.567 39.5183 101.159 39.711C100.762 39.9037 100.303 40 99.7818 40H95.3618ZM96.4668 39.167H99.7478C100.042 39.167 100.309 39.0933 100.547 38.946C100.796 38.7873 100.989 38.5833 101.125 38.334C101.272 38.0847 101.346 37.824 101.346 37.552C101.346 37.2573 101.278 36.991 101.142 36.753C101.006 36.5037 100.824 36.3053 100.598 36.158C100.371 36.0107 100.11 35.937 99.8158 35.937H96.4668V39.167ZM96.4668 35.138H99.4758C99.7705 35.138 100.031 35.0587 100.258 34.9C100.484 34.7413 100.66 34.5373 100.785 34.288C100.909 34.0387 100.972 33.778 100.972 33.506C100.972 33.098 100.836 32.741 100.564 32.435C100.303 32.129 99.9631 31.976 99.5438 31.976H96.4668V35.138ZM104.799 40V31.16H105.955V38.436L111.344 31.143H112.381V40H111.225V32.843L105.921 40H104.799ZM117.46 40V32.18H114.298V31.143H121.778V32.18H118.616V40H117.46ZM123.675 40V31.143H124.831V34.271H127.126C128.134 34.271 128.894 34.5317 129.404 35.053C129.925 35.563 130.186 36.2373 130.186 37.076C130.186 37.62 130.072 38.113 129.846 38.555C129.619 38.997 129.285 39.3483 128.843 39.609C128.412 39.8697 127.868 40 127.211 40H123.675ZM124.831 39.082H127.058C127.522 39.082 127.896 38.9913 128.18 38.81C128.463 38.6173 128.673 38.3737 128.809 38.079C128.945 37.773 129.013 37.4443 129.013 37.093C129.013 36.753 128.95 36.4413 128.826 36.158C128.712 35.8633 128.508 35.631 128.214 35.461C127.93 35.2797 127.534 35.189 127.024 35.189H124.831V39.082ZM136.989 40V31.143H141.409C141.907 31.143 142.327 31.2507 142.667 31.466C143.007 31.67 143.262 31.9363 143.432 32.265C143.613 32.5937 143.704 32.945 143.704 33.319C143.704 33.795 143.59 34.2257 143.364 34.611C143.137 34.985 142.808 35.2683 142.378 35.461C142.888 35.6083 143.301 35.8747 143.619 36.26C143.936 36.6453 144.095 37.11 144.095 37.654C144.095 38.13 143.976 38.5437 143.738 38.895C143.511 39.2463 143.194 39.5183 142.786 39.711C142.389 39.9037 141.93 40 141.409 40H136.989ZM138.094 39.167H141.375C141.669 39.167 141.936 39.0933 142.174 38.946C142.423 38.7873 142.616 38.5833 142.752 38.334C142.899 38.0847 142.973 37.824 142.973 37.552C142.973 37.2573 142.905 36.991 142.769 36.753C142.633 36.5037 142.451 36.3053 142.225 36.158C141.998 36.0107 141.737 35.937 141.443 35.937H138.094V39.167ZM138.094 35.138H141.103C141.397 35.138 141.658 35.0587 141.885 34.9C142.111 34.7413 142.287 34.5373 142.412 34.288C142.536 34.0387 142.599 33.778 142.599 33.506C142.599 33.098 142.463 32.741 142.191 32.435C141.93 32.129 141.59 31.976 141.171 31.976H138.094V35.138ZM151.099 40V31.143H152.255V34.934H153.581L156.556 31.143H157.882L154.499 35.444L158.307 40H156.947L153.581 36.005H152.255V40H151.099ZM163.597 40.17C162.963 40.17 162.373 40.051 161.829 39.813C161.297 39.5637 160.832 39.2293 160.435 38.81C160.05 38.3793 159.75 37.892 159.534 37.348C159.319 36.7927 159.211 36.209 159.211 35.597C159.211 34.9623 159.319 34.373 159.534 33.829C159.75 33.2737 160.056 32.7863 160.452 32.367C160.849 31.9363 161.314 31.602 161.846 31.364C162.39 31.1147 162.98 30.99 163.614 30.99C164.249 30.99 164.833 31.1147 165.365 31.364C165.898 31.602 166.363 31.9363 166.759 32.367C167.156 32.7863 167.462 33.2737 167.677 33.829C167.893 34.373 168 34.9623 168 35.597C168 36.209 167.893 36.7927 167.677 37.348C167.462 37.892 167.156 38.3793 166.759 38.81C166.374 39.2293 165.909 39.5637 165.365 39.813C164.833 40.051 164.243 40.17 163.597 40.17ZM160.384 35.614C160.384 36.2713 160.526 36.872 160.809 37.416C161.104 37.9487 161.495 38.3737 161.982 38.691C162.47 38.997 163.008 39.15 163.597 39.15C164.187 39.15 164.725 38.9913 165.212 38.674C165.7 38.3567 166.091 37.926 166.385 37.382C166.68 36.8267 166.827 36.226 166.827 35.58C166.827 34.9227 166.68 34.322 166.385 33.778C166.091 33.234 165.7 32.8033 165.212 32.486C164.725 32.1687 164.187 32.01 163.597 32.01C163.008 32.01 162.47 32.1743 161.982 32.503C161.506 32.8317 161.121 33.268 160.826 33.812C160.532 34.3447 160.384 34.9453 160.384 35.614ZM174.796 40.17C174.059 40.17 173.396 39.9773 172.807 39.592C172.229 39.2067 171.77 38.7307 171.43 38.164V43.621H170.274V31.143H171.311V32.86C171.662 32.3047 172.132 31.857 172.722 31.517C173.311 31.1657 173.94 30.99 174.609 30.99C175.221 30.99 175.782 31.1203 176.292 31.381C176.802 31.6303 177.244 31.9703 177.618 32.401C177.992 32.8317 178.281 33.3247 178.485 33.88C178.7 34.424 178.808 34.9907 178.808 35.58C178.808 36.4073 178.638 37.1723 178.298 37.875C177.969 38.5663 177.504 39.1217 176.904 39.541C176.303 39.9603 175.6 40.17 174.796 40.17ZM174.473 39.15C174.96 39.15 175.396 39.0537 175.782 38.861C176.167 38.657 176.496 38.385 176.768 38.045C177.051 37.705 177.266 37.3253 177.414 36.906C177.561 36.4753 177.635 36.0333 177.635 35.58C177.635 35.104 177.55 34.6507 177.38 34.22C177.221 33.7893 176.989 33.4097 176.683 33.081C176.377 32.7523 176.025 32.4917 175.629 32.299C175.232 32.1063 174.801 32.01 174.337 32.01C174.042 32.01 173.736 32.0667 173.419 32.18C173.101 32.2933 172.795 32.4577 172.501 32.673C172.217 32.877 171.979 33.1093 171.787 33.37C171.594 33.6307 171.475 33.9083 171.43 34.203V36.923C171.611 37.3423 171.855 37.722 172.161 38.062C172.467 38.3907 172.818 38.657 173.215 38.861C173.623 39.0537 174.042 39.15 174.473 39.15ZM183.673 40.102C182.857 40.102 182.16 39.949 181.582 39.643C181.004 39.3257 180.562 38.8837 180.256 38.317L181.208 37.892C181.423 38.2887 181.735 38.6003 182.143 38.827C182.551 39.0423 183.044 39.15 183.622 39.15C184.313 39.15 184.863 38.9913 185.271 38.674C185.69 38.3567 185.9 37.9317 185.9 37.399C185.9 36.9117 185.736 36.5207 185.407 36.226C185.078 35.9313 184.625 35.7783 184.047 35.767H183.146V34.968H184.115C184.364 34.968 184.591 34.9 184.795 34.764C184.999 34.628 185.158 34.4467 185.271 34.22C185.384 33.9933 185.441 33.7383 185.441 33.455C185.441 33.013 185.282 32.656 184.965 32.384C184.659 32.112 184.206 31.976 183.605 31.976C183.106 31.976 182.687 32.078 182.347 32.282C182.018 32.4747 181.752 32.7637 181.548 33.149L180.664 32.673C180.925 32.1517 181.31 31.7437 181.82 31.449C182.341 31.1543 182.948 31.007 183.639 31.007C184.206 31.007 184.699 31.1033 185.118 31.296C185.549 31.4773 185.883 31.7437 186.121 32.095C186.37 32.435 186.495 32.8487 186.495 33.336C186.495 33.7553 186.393 34.1463 186.189 34.509C185.985 34.8603 185.702 35.1267 185.339 35.308C185.86 35.4667 186.263 35.7443 186.546 36.141C186.841 36.5377 186.988 37.0023 186.988 37.535C186.988 38.0677 186.846 38.5267 186.563 38.912C186.28 39.2973 185.889 39.592 185.39 39.796C184.891 40 184.319 40.102 183.673 40.102ZM189.248 40V31.16H190.404V38.436L195.793 31.143H196.83V40H195.674V32.843L190.37 40H189.248ZM199.682 40V31.143H200.838V34.951H205.904V31.143H207.06V40H205.904V35.988H200.838V40H199.682ZM210.737 43.706C210.544 43.706 210.346 43.672 210.142 43.604C209.949 43.5473 209.751 43.4623 209.547 43.349L209.972 42.533C210.096 42.601 210.21 42.6577 210.312 42.703C210.425 42.7483 210.544 42.771 210.669 42.771C210.963 42.771 211.241 42.6237 211.502 42.329C211.762 42.0343 212.012 41.6037 212.25 41.037L212.692 39.932L208.748 31.143H209.972L213.219 38.81L216.211 31.143H217.367L213.151 41.394C212.924 41.9267 212.686 42.363 212.437 42.703C212.187 43.043 211.921 43.2923 211.638 43.451C211.354 43.621 211.054 43.706 210.737 43.706Z" fill="white"/>
</svg>
