<svg width="244" height="68" viewBox="0 0 244 68" fill="none" xmlns="http://www.w3.org/2000/svg">
<path d="M57.1898 40.085C56.3398 40.085 55.5692 39.915 54.8778 39.575C54.1865 39.235 53.5915 38.776 53.0928 38.198C52.5942 37.6087 52.2088 36.9513 51.9368 36.226C51.6648 35.4893 51.5288 34.7357 51.5288 33.965C51.5288 33.1603 51.6705 32.3953 51.9538 31.67C52.2372 30.9333 52.6338 30.2817 53.1438 29.715C53.6652 29.137 54.2715 28.6837 54.9628 28.355C55.6542 28.015 56.4022 27.845 57.2068 27.845C58.0568 27.845 58.8275 28.0207 59.5188 28.372C60.2102 28.7233 60.7995 29.1937 61.2868 29.783C61.7855 30.3723 62.1708 31.0297 62.4428 31.755C62.7148 32.4803 62.8508 33.2227 62.8508 33.982C62.8508 34.7867 62.7092 35.5573 62.4258 36.294C62.1425 37.0193 61.7458 37.671 61.2358 38.249C60.7258 38.8157 60.1252 39.2633 59.4338 39.592C58.7425 39.9207 57.9945 40.085 57.1898 40.085ZM52.7188 33.965C52.7188 34.6223 52.8265 35.257 53.0418 35.869C53.2572 36.4697 53.5632 37.008 53.9598 37.484C54.3565 37.9487 54.8268 38.3227 55.3708 38.606C55.9262 38.878 56.5325 39.014 57.1898 39.014C57.8812 39.014 58.4988 38.8723 59.0428 38.589C59.5982 38.2943 60.0685 37.909 60.4538 37.433C60.8505 36.9457 61.1508 36.4017 61.3548 35.801C61.5588 35.2003 61.6608 34.5883 61.6608 33.965C61.6608 33.3077 61.5532 32.6787 61.3378 32.078C61.1225 31.4773 60.8108 30.939 60.4028 30.463C60.0062 29.987 59.5358 29.613 58.9918 29.341C58.4478 29.069 57.8472 28.933 57.1898 28.933C56.5098 28.933 55.8922 29.0747 55.3368 29.358C54.7928 29.6413 54.3225 30.0267 53.9258 30.514C53.5405 30.99 53.2402 31.5283 53.0248 32.129C52.8208 32.7297 52.7188 33.3417 52.7188 33.965ZM67.4064 40V32.18H64.2444V31.143H71.7244V32.18H68.5624V40H67.4064ZM73.621 40V31.143H74.777V34.934H76.103L79.078 31.143H80.404L77.021 35.444L80.829 40H79.469L76.103 36.005H74.777V40H73.621ZM87.332 40.17C86.5954 40.17 85.9324 39.9773 85.343 39.592C84.765 39.2067 84.306 38.7307 83.966 38.164V43.621H82.81V31.143H83.847V32.86C84.1984 32.3047 84.6687 31.857 85.258 31.517C85.8474 31.1657 86.4764 30.99 87.145 30.99C87.757 30.99 88.318 31.1203 88.828 31.381C89.338 31.6303 89.78 31.9703 90.154 32.401C90.528 32.8317 90.817 33.3247 91.021 33.88C91.2364 34.424 91.344 34.9907 91.344 35.58C91.344 36.4073 91.174 37.1723 90.834 37.875C90.5054 38.5663 90.0407 39.1217 89.44 39.541C88.8394 39.9603 88.1367 40.17 87.332 40.17ZM87.009 39.15C87.4964 39.15 87.9327 39.0537 88.318 38.861C88.7034 38.657 89.032 38.385 89.304 38.045C89.5874 37.705 89.8027 37.3253 89.95 36.906C90.0974 36.4753 90.171 36.0333 90.171 35.58C90.171 35.104 90.086 34.6507 89.916 34.22C89.7574 33.7893 89.525 33.4097 89.219 33.081C88.913 32.7523 88.5617 32.4917 88.165 32.299C87.7684 32.1063 87.3377 32.01 86.873 32.01C86.5784 32.01 86.2724 32.0667 85.955 32.18C85.6377 32.2933 85.3317 32.4577 85.037 32.673C84.7537 32.877 84.5157 33.1093 84.323 33.37C84.1304 33.6307 84.0114 33.9083 83.966 34.203V36.923C84.1474 37.3423 84.391 37.722 84.697 38.062C85.003 38.3907 85.3544 38.657 85.751 38.861C86.159 39.0537 86.5784 39.15 87.009 39.15ZM93.6252 40V31.143H94.7812V34.271H96.7872C97.7959 34.271 98.5552 34.5317 99.0652 35.053C99.5865 35.563 99.8472 36.2373 99.8472 37.076C99.8472 37.62 99.7339 38.113 99.5072 38.555C99.2805 38.997 98.9462 39.3483 98.5042 39.609C98.0735 39.8697 97.5295 40 96.8722 40H93.6252ZM94.7812 39.082H96.7192C97.1839 39.082 97.5579 38.9913 97.8412 38.81C98.1245 38.6173 98.3342 38.3737 98.4702 38.079C98.6062 37.773 98.6742 37.4443 98.6742 37.093C98.6742 36.753 98.6119 36.4413 98.4872 36.158C98.3739 35.8633 98.1699 35.631 97.8752 35.461C97.5919 35.2797 97.1952 35.189 96.6852 35.189H94.7812V39.082ZM101.462 40V31.16H102.618V40H101.462ZM107.714 40V32.18H104.552V31.143H112.032V32.18H108.87V40H107.714ZM113.928 40V31.143H115.084V34.271H117.379C118.388 34.271 119.147 34.5317 119.657 35.053C120.179 35.563 120.439 36.2373 120.439 37.076C120.439 37.62 120.326 38.113 120.099 38.555C119.873 38.997 119.538 39.3483 119.096 39.609C118.666 39.8697 118.122 40 117.464 40H113.928ZM115.084 39.082H117.311C117.776 39.082 118.15 38.9913 118.433 38.81C118.717 38.6173 118.926 38.3737 119.062 38.079C119.198 37.773 119.266 37.4443 119.266 37.093C119.266 36.753 119.204 36.4413 119.079 36.158C118.966 35.8633 118.762 35.631 118.467 35.461C118.184 35.2797 117.787 35.189 117.277 35.189H115.084V39.082ZM127.242 40V31.143H128.432L131.951 37.246L135.487 31.143H136.626V40H135.521V32.877L132.325 38.419H131.577L128.347 32.877V40H127.242ZM138.805 37.45C138.805 36.8947 138.964 36.4187 139.281 36.022C139.598 35.614 140.035 35.3023 140.59 35.087C141.157 34.8603 141.808 34.747 142.545 34.747C142.976 34.747 143.423 34.781 143.888 34.849C144.353 34.917 144.766 35.019 145.129 35.155V34.407C145.129 33.659 144.908 33.064 144.466 32.622C144.024 32.18 143.412 31.959 142.63 31.959C142.154 31.959 141.684 32.0497 141.219 32.231C140.766 32.401 140.29 32.656 139.791 32.996L139.349 32.18C139.927 31.7833 140.494 31.4887 141.049 31.296C141.604 31.092 142.171 30.99 142.749 30.99C143.837 30.99 144.698 31.3017 145.333 31.925C145.968 32.5483 146.285 33.4097 146.285 34.509V38.606C146.285 38.7647 146.319 38.8837 146.387 38.963C146.455 39.031 146.563 39.0707 146.71 39.082V40C146.585 40.0113 146.478 40.0227 146.387 40.034C146.296 40.0453 146.228 40.0453 146.183 40.034C145.9 40.0227 145.684 39.932 145.537 39.762C145.39 39.592 145.31 39.4107 145.299 39.218L145.282 38.572C144.885 39.082 144.37 39.4787 143.735 39.762C143.1 40.034 142.454 40.17 141.797 40.17C141.23 40.17 140.715 40.051 140.25 39.813C139.797 39.5637 139.44 39.235 139.179 38.827C138.93 38.4077 138.805 37.9487 138.805 37.45ZM144.738 38.13C144.863 37.9713 144.959 37.8183 145.027 37.671C145.095 37.5237 145.129 37.3933 145.129 37.28V35.988C144.744 35.8407 144.341 35.7273 143.922 35.648C143.514 35.5687 143.1 35.529 142.681 35.529C141.854 35.529 141.185 35.6933 140.675 36.022C140.165 36.3507 139.91 36.7983 139.91 37.365C139.91 37.6937 139.995 38.0053 140.165 38.3C140.335 38.5833 140.584 38.8213 140.913 39.014C141.242 39.1953 141.627 39.286 142.069 39.286C142.624 39.286 143.14 39.1783 143.616 38.963C144.103 38.7477 144.477 38.47 144.738 38.13ZM149.106 40V31.143H154.393V32.18H150.262V40H149.106ZM155.638 37.45C155.638 36.8947 155.797 36.4187 156.114 36.022C156.432 35.614 156.868 35.3023 157.423 35.087C157.99 34.8603 158.642 34.747 159.378 34.747C159.809 34.747 160.257 34.781 160.721 34.849C161.186 34.917 161.6 35.019 161.962 35.155V34.407C161.962 33.659 161.741 33.064 161.299 32.622C160.857 32.18 160.245 31.959 159.463 31.959C158.987 31.959 158.517 32.0497 158.052 32.231C157.599 32.401 157.123 32.656 156.624 32.996L156.182 32.18C156.76 31.7833 157.327 31.4887 157.882 31.296C158.438 31.092 159.004 30.99 159.582 30.99C160.67 30.99 161.532 31.3017 162.166 31.925C162.801 32.5483 163.118 33.4097 163.118 34.509V38.606C163.118 38.7647 163.152 38.8837 163.22 38.963C163.288 39.031 163.396 39.0707 163.543 39.082V40C163.419 40.0113 163.311 40.0227 163.22 40.034C163.13 40.0453 163.062 40.0453 163.016 40.034C162.733 40.0227 162.518 39.932 162.37 39.762C162.223 39.592 162.144 39.4107 162.132 39.218L162.115 38.572C161.719 39.082 161.203 39.4787 160.568 39.762C159.934 40.034 159.288 40.17 158.63 40.17C158.064 40.17 157.548 40.051 157.083 39.813C156.63 39.5637 156.273 39.235 156.012 38.827C155.763 38.4077 155.638 37.9487 155.638 37.45ZM161.571 38.13C161.696 37.9713 161.792 37.8183 161.86 37.671C161.928 37.5237 161.962 37.3933 161.962 37.28V35.988C161.577 35.8407 161.175 35.7273 160.755 35.648C160.347 35.5687 159.934 35.529 159.514 35.529C158.687 35.529 158.018 35.6933 157.508 36.022C156.998 36.3507 156.743 36.7983 156.743 37.365C156.743 37.6937 156.828 38.0053 156.998 38.3C157.168 38.5833 157.418 38.8213 157.746 39.014C158.075 39.1953 158.46 39.286 158.902 39.286C159.458 39.286 159.973 39.1783 160.449 38.963C160.937 38.7477 161.311 38.47 161.571 38.13ZM168.523 40.102C167.707 40.102 167.01 39.949 166.432 39.643C165.854 39.3257 165.412 38.8837 165.106 38.317L166.058 37.892C166.273 38.2887 166.585 38.6003 166.993 38.827C167.401 39.0423 167.894 39.15 168.472 39.15C169.163 39.15 169.713 38.9913 170.121 38.674C170.54 38.3567 170.75 37.9317 170.75 37.399C170.75 36.9117 170.586 36.5207 170.257 36.226C169.928 35.9313 169.475 35.7783 168.897 35.767H167.996V34.968H168.965C169.214 34.968 169.441 34.9 169.645 34.764C169.849 34.628 170.008 34.4467 170.121 34.22C170.234 33.9933 170.291 33.7383 170.291 33.455C170.291 33.013 170.132 32.656 169.815 32.384C169.509 32.112 169.056 31.976 168.455 31.976C167.956 31.976 167.537 32.078 167.197 32.282C166.868 32.4747 166.602 32.7637 166.398 33.149L165.514 32.673C165.775 32.1517 166.16 31.7437 166.67 31.449C167.191 31.1543 167.798 31.007 168.489 31.007C169.056 31.007 169.549 31.1033 169.968 31.296C170.399 31.4773 170.733 31.7437 170.971 32.095C171.22 32.435 171.345 32.8487 171.345 33.336C171.345 33.7553 171.243 34.1463 171.039 34.509C170.835 34.8603 170.552 35.1267 170.189 35.308C170.71 35.4667 171.113 35.7443 171.396 36.141C171.691 36.5377 171.838 37.0023 171.838 37.535C171.838 38.0677 171.696 38.5267 171.413 38.912C171.13 39.2973 170.739 39.592 170.24 39.796C169.741 40 169.169 40.102 168.523 40.102ZM174.098 40V31.16H175.254V38.436L180.643 31.143H181.68V40H180.524V32.843L175.22 40H174.098ZM184.532 40V31.143H185.688V34.951H190.754V31.143H191.91V40H190.754V35.988H185.688V40H184.532Z" fill="#6E9C9F"/>
<rect x="1" y="0.5" width="242" height="67" stroke="#6E9C9F"/>
</svg>
