<svg width="310" height="68" viewBox="0 0 310 68" fill="none" xmlns="http://www.w3.org/2000/svg">
<rect width="67" height="67" transform="translate(0 0.5)" fill="#6E9C9F" fill-opacity="0.1"/>
<path d="M33 20V48M33 48L26 40.8108M33 48L40 40.8108" stroke="#6E9C9F"/>
<rect width="243" height="68" transform="translate(67)" fill="#6E9C9F"/>
<path d="M123.69 40.085C122.84 40.085 122.069 39.915 121.378 39.575C120.686 39.235 120.091 38.776 119.593 38.198C119.094 37.6087 118.709 36.9513 118.437 36.226C118.165 35.4893 118.029 34.7357 118.029 33.965C118.029 33.1603 118.17 32.3953 118.454 31.67C118.737 30.9333 119.134 30.2817 119.644 29.715C120.165 29.137 120.771 28.6837 121.463 28.355C122.154 28.015 122.902 27.845 123.707 27.845C124.557 27.845 125.327 28.0207 126.019 28.372C126.71 28.7233 127.299 29.1937 127.787 29.783C128.285 30.3723 128.671 31.0297 128.943 31.755C129.215 32.4803 129.351 33.2227 129.351 33.982C129.351 34.7867 129.209 35.5573 128.926 36.294C128.642 37.0193 128.246 37.671 127.736 38.249C127.226 38.8157 126.625 39.2633 125.934 39.592C125.242 39.9207 124.494 40.085 123.69 40.085ZM119.219 33.965C119.219 34.6223 119.326 35.257 119.542 35.869C119.757 36.4697 120.063 37.008 120.46 37.484C120.856 37.9487 121.327 38.3227 121.871 38.606C122.426 38.878 123.032 39.014 123.69 39.014C124.381 39.014 124.999 38.8723 125.543 38.589C126.098 38.2943 126.568 37.909 126.954 37.433C127.35 36.9457 127.651 36.4017 127.855 35.801C128.059 35.2003 128.161 34.5883 128.161 33.965C128.161 33.3077 128.053 32.6787 127.838 32.078C127.622 31.4773 127.311 30.939 126.903 30.463C126.506 29.987 126.036 29.613 125.492 29.341C124.948 29.069 124.347 28.933 123.69 28.933C123.01 28.933 122.392 29.0747 121.837 29.358C121.293 29.6413 120.822 30.0267 120.426 30.514C120.04 30.99 119.74 31.5283 119.525 32.129C119.321 32.7297 119.219 33.3417 119.219 33.965ZM133.906 40V32.18H130.744V31.143H138.224V32.18H135.062V40H133.906ZM140.121 40V31.143H141.277V34.934H142.603L145.578 31.143H146.904L143.521 35.444L147.329 40H145.969L142.603 36.005H141.277V40H140.121ZM153.832 40.17C153.095 40.17 152.432 39.9773 151.843 39.592C151.265 39.2067 150.806 38.7307 150.466 38.164V43.621H149.31V31.143H150.347V32.86C150.698 32.3047 151.169 31.857 151.758 31.517C152.347 31.1657 152.976 30.99 153.645 30.99C154.257 30.99 154.818 31.1203 155.328 31.381C155.838 31.6303 156.28 31.9703 156.654 32.401C157.028 32.8317 157.317 33.3247 157.521 33.88C157.736 34.424 157.844 34.9907 157.844 35.58C157.844 36.4073 157.674 37.1723 157.334 37.875C157.005 38.5663 156.541 39.1217 155.94 39.541C155.339 39.9603 154.637 40.17 153.832 40.17ZM153.509 39.15C153.996 39.15 154.433 39.0537 154.818 38.861C155.203 38.657 155.532 38.385 155.804 38.045C156.087 37.705 156.303 37.3253 156.45 36.906C156.597 36.4753 156.671 36.0333 156.671 35.58C156.671 35.104 156.586 34.6507 156.416 34.22C156.257 33.7893 156.025 33.4097 155.719 33.081C155.413 32.7523 155.062 32.4917 154.665 32.299C154.268 32.1063 153.838 32.01 153.373 32.01C153.078 32.01 152.772 32.0667 152.455 32.18C152.138 32.2933 151.832 32.4577 151.537 32.673C151.254 32.877 151.016 33.1093 150.823 33.37C150.63 33.6307 150.511 33.9083 150.466 34.203V36.923C150.647 37.3423 150.891 37.722 151.197 38.062C151.503 38.3907 151.854 38.657 152.251 38.861C152.659 39.0537 153.078 39.15 153.509 39.15ZM160.125 40V31.143H161.281V34.271H163.287C164.296 34.271 165.055 34.5317 165.565 35.053C166.087 35.563 166.347 36.2373 166.347 37.076C166.347 37.62 166.234 38.113 166.007 38.555C165.781 38.997 165.446 39.3483 165.004 39.609C164.574 39.8697 164.03 40 163.372 40H160.125ZM161.281 39.082H163.219C163.684 39.082 164.058 38.9913 164.341 38.81C164.625 38.6173 164.834 38.3737 164.97 38.079C165.106 37.773 165.174 37.4443 165.174 37.093C165.174 36.753 165.112 36.4413 164.987 36.158C164.874 35.8633 164.67 35.631 164.375 35.461C164.092 35.2797 163.695 35.189 163.185 35.189H161.281V39.082ZM167.962 40V31.16H169.118V40H167.962ZM174.214 40V32.18H171.052V31.143H178.532V32.18H175.37V40H174.214ZM180.428 40V31.143H181.584V34.271H183.879C184.888 34.271 185.647 34.5317 186.157 35.053C186.679 35.563 186.939 36.2373 186.939 37.076C186.939 37.62 186.826 38.113 186.599 38.555C186.373 38.997 186.038 39.3483 185.596 39.609C185.166 39.8697 184.622 40 183.964 40H180.428ZM181.584 39.082H183.811C184.276 39.082 184.65 38.9913 184.933 38.81C185.217 38.6173 185.426 38.3737 185.562 38.079C185.698 37.773 185.766 37.4443 185.766 37.093C185.766 36.753 185.704 36.4413 185.579 36.158C185.466 35.8633 185.262 35.631 184.967 35.461C184.684 35.2797 184.287 35.189 183.777 35.189H181.584V39.082ZM193.742 40V31.143H194.932L198.451 37.246L201.987 31.143H203.126V40H202.021V32.877L198.825 38.419H198.077L194.847 32.877V40H193.742ZM205.305 37.45C205.305 36.8947 205.464 36.4187 205.781 36.022C206.098 35.614 206.535 35.3023 207.09 35.087C207.657 34.8603 208.308 34.747 209.045 34.747C209.476 34.747 209.923 34.781 210.388 34.849C210.853 34.917 211.266 35.019 211.629 35.155V34.407C211.629 33.659 211.408 33.064 210.966 32.622C210.524 32.18 209.912 31.959 209.13 31.959C208.654 31.959 208.184 32.0497 207.719 32.231C207.266 32.401 206.79 32.656 206.291 32.996L205.849 32.18C206.427 31.7833 206.994 31.4887 207.549 31.296C208.104 31.092 208.671 30.99 209.249 30.99C210.337 30.99 211.198 31.3017 211.833 31.925C212.468 32.5483 212.785 33.4097 212.785 34.509V38.606C212.785 38.7647 212.819 38.8837 212.887 38.963C212.955 39.031 213.063 39.0707 213.21 39.082V40C213.085 40.0113 212.978 40.0227 212.887 40.034C212.796 40.0453 212.728 40.0453 212.683 40.034C212.4 40.0227 212.184 39.932 212.037 39.762C211.89 39.592 211.81 39.4107 211.799 39.218L211.782 38.572C211.385 39.082 210.87 39.4787 210.235 39.762C209.6 40.034 208.954 40.17 208.297 40.17C207.73 40.17 207.215 40.051 206.75 39.813C206.297 39.5637 205.94 39.235 205.679 38.827C205.43 38.4077 205.305 37.9487 205.305 37.45ZM211.238 38.13C211.363 37.9713 211.459 37.8183 211.527 37.671C211.595 37.5237 211.629 37.3933 211.629 37.28V35.988C211.244 35.8407 210.841 35.7273 210.422 35.648C210.014 35.5687 209.6 35.529 209.181 35.529C208.354 35.529 207.685 35.6933 207.175 36.022C206.665 36.3507 206.41 36.7983 206.41 37.365C206.41 37.6937 206.495 38.0053 206.665 38.3C206.835 38.5833 207.084 38.8213 207.413 39.014C207.742 39.1953 208.127 39.286 208.569 39.286C209.124 39.286 209.64 39.1783 210.116 38.963C210.603 38.7477 210.977 38.47 211.238 38.13ZM215.606 40V31.143H220.893V32.18H216.762V40H215.606ZM222.138 37.45C222.138 36.8947 222.297 36.4187 222.614 36.022C222.932 35.614 223.368 35.3023 223.923 35.087C224.49 34.8603 225.142 34.747 225.878 34.747C226.309 34.747 226.757 34.781 227.221 34.849C227.686 34.917 228.1 35.019 228.462 35.155V34.407C228.462 33.659 228.241 33.064 227.799 32.622C227.357 32.18 226.745 31.959 225.963 31.959C225.487 31.959 225.017 32.0497 224.552 32.231C224.099 32.401 223.623 32.656 223.124 32.996L222.682 32.18C223.26 31.7833 223.827 31.4887 224.382 31.296C224.938 31.092 225.504 30.99 226.082 30.99C227.17 30.99 228.032 31.3017 228.666 31.925C229.301 32.5483 229.618 33.4097 229.618 34.509V38.606C229.618 38.7647 229.652 38.8837 229.72 38.963C229.788 39.031 229.896 39.0707 230.043 39.082V40C229.919 40.0113 229.811 40.0227 229.72 40.034C229.63 40.0453 229.562 40.0453 229.516 40.034C229.233 40.0227 229.018 39.932 228.87 39.762C228.723 39.592 228.644 39.4107 228.632 39.218L228.615 38.572C228.219 39.082 227.703 39.4787 227.068 39.762C226.434 40.034 225.788 40.17 225.13 40.17C224.564 40.17 224.048 40.051 223.583 39.813C223.13 39.5637 222.773 39.235 222.512 38.827C222.263 38.4077 222.138 37.9487 222.138 37.45ZM228.071 38.13C228.196 37.9713 228.292 37.8183 228.36 37.671C228.428 37.5237 228.462 37.3933 228.462 37.28V35.988C228.077 35.8407 227.675 35.7273 227.255 35.648C226.847 35.5687 226.434 35.529 226.014 35.529C225.187 35.529 224.518 35.6933 224.008 36.022C223.498 36.3507 223.243 36.7983 223.243 37.365C223.243 37.6937 223.328 38.0053 223.498 38.3C223.668 38.5833 223.918 38.8213 224.246 39.014C224.575 39.1953 224.96 39.286 225.402 39.286C225.958 39.286 226.473 39.1783 226.949 38.963C227.437 38.7477 227.811 38.47 228.071 38.13ZM235.023 40.102C234.207 40.102 233.51 39.949 232.932 39.643C232.354 39.3257 231.912 38.8837 231.606 38.317L232.558 37.892C232.773 38.2887 233.085 38.6003 233.493 38.827C233.901 39.0423 234.394 39.15 234.972 39.15C235.663 39.15 236.213 38.9913 236.621 38.674C237.04 38.3567 237.25 37.9317 237.25 37.399C237.25 36.9117 237.086 36.5207 236.757 36.226C236.428 35.9313 235.975 35.7783 235.397 35.767H234.496V34.968H235.465C235.714 34.968 235.941 34.9 236.145 34.764C236.349 34.628 236.508 34.4467 236.621 34.22C236.734 33.9933 236.791 33.7383 236.791 33.455C236.791 33.013 236.632 32.656 236.315 32.384C236.009 32.112 235.556 31.976 234.955 31.976C234.456 31.976 234.037 32.078 233.697 32.282C233.368 32.4747 233.102 32.7637 232.898 33.149L232.014 32.673C232.275 32.1517 232.66 31.7437 233.17 31.449C233.691 31.1543 234.298 31.007 234.989 31.007C235.556 31.007 236.049 31.1033 236.468 31.296C236.899 31.4773 237.233 31.7437 237.471 32.095C237.72 32.435 237.845 32.8487 237.845 33.336C237.845 33.7553 237.743 34.1463 237.539 34.509C237.335 34.8603 237.052 35.1267 236.689 35.308C237.21 35.4667 237.613 35.7443 237.896 36.141C238.191 36.5377 238.338 37.0023 238.338 37.535C238.338 38.0677 238.196 38.5267 237.913 38.912C237.63 39.2973 237.239 39.592 236.74 39.796C236.241 40 235.669 40.102 235.023 40.102ZM240.598 40V31.16H241.754V38.436L247.143 31.143H248.18V40H247.024V32.843L241.72 40H240.598ZM251.032 40V31.143H252.188V34.951H257.254V31.143H258.41V40H257.254V35.988H252.188V40H251.032Z" fill="white"/>
</svg>
